<svg height="16" viewBox="0 0 16 16" width="16" xmlns="http://www.w3.org/2000/svg"><linearGradient id="a" gradientUnits="userSpaceOnUse" x2="0" y1="1" y2="15"><stop offset="0" stop-color="#fb4934"/><stop offset=".5" stop-color="#fabd2f"/><stop offset="1" stop-color="#8ec07c"/></linearGradient><path d="M9 14a1 1 0 0 0 1.5.85l4-2.511a1 1 0 0 0 0-1.724l-4-2.511a1 1 0 0 0-1.5.85z" fill="#fb4934"/><path d="M13 2a1 1 0 0 0-1-1L4.754 3A1 1 0 0 0 4 4v5.55A2.5 2.5 0 1 0 6 12V4.756l5-1.428V6.5l2-1z" fill="url(#a)"/></svg>
