<svg width="256" height="256" version="1.1" viewBox="0 0 256 256" xmlns="http://www.w3.org/2000/svg">
  <path d="M0 0h256v256H0V0Z" fill="#3c3836"/>
  <path d="m176 196.5c1.762-16.73 7.034-38.34 4.633-65.05-0.286-3.178-1.125-12.07-1.115-20.68 6e-3 -5.294-0.528-12.13-0.494-16.04 0.042-4.833-0.107-10.4-0.156-13.94-0.263-18.86-3.307-21.46-7.704-21.46-4.311 0-6.692 3.566-6.765 21.14-0.015 3.605 0.125 12.75 0.125 14.62 0 4.377-0.083 8.542 0 13.38 0.112 6.489-1.07 17-2.25 17-0.976 0-2.025-9.825-2.394-19.25-0.189-4.831-0.805-14.58-0.65-17.52 0.44-8.353 0.119-14.73 0.384-22.54 0.796-23.4-3.254-27.93-8.673-27.93-5.494 0-8.995 14.42-8.713 28.56 0.032 1.599-0.291 12.68 0.047 22.46 0.189 5.453-0.267 12.41-0.42 17.42-0.274 8.942-1.439 15.97-2.218 15.97-0.66 0-1.033-8.146-1.364-16.43-0.214-5.389-1.117-14.62-0.916-20.9 0.472-14.75-0.284-27.56-0.265-30.38 0.158-23.74-3.665-30.78-9.013-30.78-5.369 0-9.297 7.548-9.15 30.84 0.016 2.633-0.655 24.98-0.44 30.45 0.216 5.498-0.693 16.27-0.879 21.2-0.325 8.63-1.623 15.99-2.281 15.99-0.821 0-2.699-6.41-2.931-15.24-0.147-5.568 0.307-12.75 0.156-17.67-0.315-10.18-0.794-16.16-0.97-24.93-0.486-24.3-4.088-26.57-9.535-26.57-4.49 0-8.113 7.168-8.164 28.76-0.017 6.925-0.608 15.66-0.079 23.58 0.201 3.02-0.156 10.63-0.469 18.47-0.2 5.002-0.275 11.88-0.284 15.94-0.042 19.65-6.678 33.36-9.139 32.83-7.583-1.63-12.91-10.98-17.8-29.33-2.637-9.891-9.166-17.79-17.47-19.45-6.475-1.298-4.946 11.54-0.33 31.32 2.162 9.267 6.977 21.56 9.891 30.66 7.913 24.73 31.39 47.14 40.23 57.14 4.286 4.85 59.22 4.85 66.15 0 2.882-2.018 10.77-25.39 11.43-31.65z" fill="#bdae93"/>
</svg>
