<svg width="256" height="256" version="1.1" viewBox="0 0 256 256" xmlns="http://www.w3.org/2000/svg">
  <path d="M0 0h256v256H0V0Z" fill="#3c3836"/>
  <path d="m197 138.2c4.499-14.47 7.974-31.14 7.719-49.52-0.94-67.6-62.46-62.87-73.89-61.24-89.97 12.85-54.76 113.1-55.11 124.1-1.225 38.37 20.92 42.75 40.42 53.89 0.661 0.378 1.815 0.447 3.328 0.278 1.806 6.295 2.941 14.76 2.387 18.91-0.816 6.124 52.26 6.124 52.26 0 0-15.72 3.059-31.09 8.457-47.22 1.786-0.571 4.014-1.9 6.491-4.237 3.42-3.227 8.71-5.444 11.43-15.79 3.904-14.83 0.968-19.02-3.479-19.18z" fill="#bdae93"/>
</svg>
