<svg width="16" height="16" version="1.1" xmlns="http://www.w3.org/2000/svg">
  <path d="m12 9a1 1 0 0 0-1 1v1h2v2h1a1 1 0 0 0 1-1v-2a1 1 0 0 0-1-1zm1 4h-2v-2h-1a1 1 0 0 0-1 1v2a1 1 0 0 0 1 1h2a1 1 0 0 0 1-1z" fill="#83a598"/>
  <path d="m8 0.88281-7 3.5v7.2344l7 3.5 0.25977-0.13086c-0.16476-0.29096-0.25977-0.62678-0.25977-0.98633v-2c0-0.74277 0.40192-1.3874 1-1.7324v-1.6504l4-2v1.3828h1c0.36522 0 0.70592 0.097953 1 0.26758v-3.8848l-7-3.5zm0 2.2344 3.7656 1.8828-3.7656 1.8828-3.7637-1.8828 3.7637-1.8828zm-5 3.5 4 2v3.7656l-4-2v-3.7656z" color="#000000" fill="#fb4934" style="-inkscape-stroke:none"/>
</svg>
