<svg width="16" height="16" version="1.1" xmlns="http://www.w3.org/2000/svg">
  <path d="m12 9a1 1 0 0 0-1 1v1h2v2h1a1 1 0 0 0 1-1v-2a1 1 0 0 0-1-1zm1 4h-2v-2h-1a1 1 0 0 0-1 1v2a1 1 0 0 0 1 1h2a1 1 0 0 0 1-1z" fill="#83a598"/>
  <path d="m8 1c-1.2281 0-4.5007 0.11931-6.0898 1.3301-0.48029 0.36593-0.91016 0.96159-0.91016 1.6699v8c0 0.70833 0.42987 1.304 0.91016 1.6699 1.5896 1.2111 4.8636 1.3301 6.0898 1.3301 0.0743 0 0.17718-0.002818 0.26562-0.003906-0.16827-0.29322-0.26562-0.63244-0.26562-0.99609v-1c-1.6958 0.03512-3.6039-0.21672-5-1v-5.8184c1.5372 0.7407 3.3205 0.78242 5 0.81836 1.5741 0 3.1381-0.16469 4.4082-0.54102 0.22343-0.066202 0.38618-0.196 0.5918-0.27734v1.8184h1c0.36522 0 0.70592 0.097953 1 0.26758v-4.2676c0-0.70833-0.42987-1.304-0.91016-1.6699-1.5896-1.2111-4.8636-1.3301-6.0898-1.3301zm0 2c2.3866 0 4.252 0.44231 4.8789 0.91992 0.066519 0.050681 0.079724 0.064914 0.095703 0.080078-0.015979 0.015165-0.029184 0.029397-0.095703 0.080078-0.62682 0.47758-2.4921 0.91992-4.8789 0.91992-1.7241-2.535e-4 -3.4927-0.16249-5-1 1.4668-0.89901 3.3087-0.96062 5-1z" color="#000000" fill="#fb4934" style="-inkscape-stroke:none"/>
</svg>
