<svg width="16" height="16" version="1.1" xmlns="http://www.w3.org/2000/svg">
  <path d="m12 9a1 1 0 0 0-1 1v1h2v2h1a1 1 0 0 0 1-1v-2a1 1 0 0 0-1-1zm1 4h-2v-2h-1a1 1 0 0 0-1 1v2a1 1 0 0 0 1 1h2a1 1 0 0 0 1-1z" fill="#83a598"/>
  <path d="m8 1c-1.2222 0-2.4579 0.40202-3.4141 1.252-0.95618 0.84994-1.5859 2.1647-1.5859 3.748v1.25 2.75c0 1.5833 0.62976 2.8981 1.5859 3.748s2.1918 1.252 3.4141 1.252c0.088032 0 0.17561-0.001671 0.26367-0.005859-0.16744-0.29269-0.26367-0.63146-0.26367-0.99414v-2c0-0.74277 0.40192-1.3874 1-1.7324v-0.56641c0.34709-0.029977 0.69918-0.052684 1.0391-0.09375 0.18143-0.91878 0.98736-1.6074 1.9609-1.6074h1v-0.75-1.25c0-1.5833-0.62976-2.8981-1.5859-3.748-0.95618-0.84994-2.1918-1.252-3.4141-1.252zm-1 2.3594v4.3496c-0.50322-0.059072-1.0715-0.07937-1.4141-0.20117-0.29239-0.10396-0.49546-0.22827-0.56836-0.29492-0.00968-0.0088503-0.01199-0.010848-0.017578-0.015625v-1.1973c0-1.0833 0.37025-1.7686 0.91406-2.252 0.28305-0.2516 0.71269-0.26223 1.0859-0.38867zm2 0c0.37325 0.12644 0.80289 0.13707 1.0859 0.38867 0.54382 0.48339 0.91406 1.1686 0.91406 2.252v1.1973c-0.005588 0.0047773-0.007898 0.0067747-0.017578 0.015625-0.0729 0.066653-0.27598 0.19096-0.56836 0.29492-0.34257 0.1218-0.91084 0.1421-1.4141 0.20117v-4.3496zm-4 6.0469c0.59901 0.20393 1.3084 0.23519 2 0.29492v2.9395c-0.37325-0.12644-0.80289-0.13707-1.0859-0.38867-0.54382-0.48339-0.91406-1.1686-0.91406-2.252v-0.59375z" color="#000000" fill="#fb4934" style="-inkscape-stroke:none"/>
</svg>
