<svg width="16" height="16" version="1.1" xmlns="http://www.w3.org/2000/svg">
  <path d="m12 9a1 1 0 0 0-1 1v1h2v2h1a1 1 0 0 0 1-1v-2a1 1 0 0 0-1-1zm1 4h-2v-2h-1a1 1 0 0 0-1 1v2a1 1 0 0 0 1 1h2a1 1 0 0 0 1-1z" fill="#83a598"/>
  <path d="m7.8301 1.0156a1.0001 1.0001 0 0 0-0.32812 0.11719 1.0001 1.0001 0 0 0-0.50195 0.86719v2.5h-5a1.0001 1.0001 0 0 0-1 1v5a1.0001 1.0001 0 0 0 0.49609 0.86328l6 3.5a1.0001 1.0001 0 0 0 0.74609 0.095703c-0.15489-0.28434-0.24219-0.61116-0.24219-0.95898v-2c0-0.74277 0.40192-1.3874 1-1.7324v-0.69336l1.4551-0.84766c5.84e-4 -7.083e-4 0.001368-0.0012457 0.001953-0.0019531 0.29357-0.35502 0.70835-0.60567 1.1816-0.69141l1.3613-0.79297v0.75977h1c0.36522 0 0.70592 0.097953 1 0.26758v-2.7676a1.0001 1.0001 0 0 0-0.49609-0.86328l-6-3.5a1.0001 1.0001 0 0 0-0.67383-0.12109zm1.1699 2.7246 3.0156 1.7598-4.0156 2.3418-2.3008-1.3418h2.3008a1.0001 1.0001 0 0 0 1-1v-1.7598zm-6 3.5 4 2.334v2.6836l-4-2.332v-2.6855z" color="#000000" fill="#fb4934" stroke-linejoin="round" style="-inkscape-stroke:none"/>
</svg>
