<svg width="16" height="16" version="1.1" xmlns="http://www.w3.org/2000/svg">
  <path d="m12 9a1 1 0 0 0-1 1v1h2v2h1a1 1 0 0 0 1-1v-2a1 1 0 0 0-1-1zm1 4h-2v-2h-1a1 1 0 0 0-1 1v2a1 1 0 0 0 1 1h2a1 1 0 0 0 1-1z" fill="#83a598"/>
  <path d="m8 1c-3.8541 0-7 3.1459-7 7 0 3.8541 3.1459 7 7 7 0.088374 0 0.17607-0.0045 0.26367-0.0078-0.16693-0.29237-0.26367-0.63012-0.26367-0.9922v-2c0-0.74292 0.40173-1.3875 1-1.7324 0 0 0.17998-0.10215 0.39844-0.17578 0.18953-0.059239 0.39201-0.091797 0.60156-0.091797 0-1.108 0.892-2 2-2h2c0.36208 0 0.69983 0.096747 0.99219 0.26367 0.003278-0.087599 0.007812-0.1753 0.007812-0.26367 0-3.8541-3.1459-7-7-7zm-1 2.0996v5.0137c-1.3909-0.049021-2.7235-0.29106-3.9219-0.99805 0.35722-2.0217 1.9168-3.6131 3.9219-4.0156zm2 0c2.0051 0.40253 3.5647 1.994 3.9219 4.0156-0.75118 0.57114-2.054 0.89281-3.9219 0.99805zm-5.7832 6.3672c1.1481 0.3835 2.3762 0.58228 3.7832 0.65039v2.7832c-1.8088-0.36311-3.2549-1.6924-3.7832-3.4336z" color="#000000" fill="#fb4934" style="-inkscape-stroke:none"/>
</svg>
