<svg width="16" height="16" version="1.1" xmlns="http://www.w3.org/2000/svg">
  <path d="m12 9a1 1 0 0 0-1 1v1h2v2h1a1 1 0 0 0 1-1v-2a1 1 0 0 0-1-1zm1 4h-2v-2h-1a1 1 0 0 0-1 1v2a1 1 0 0 0 1 1h2a1 1 0 0 0 1-1z" fill="#83a598"/>
  <g fill="none">
    <path d="m8 2.5977c-2.4662 0-5.019 0.83882-6.3379 2.8555l-0.027344 0.046875c-0.89236 1.5456-0.89236 3.4544 0 5l0.013672 0.023438 0.013672 0.023437c1.3188 2.0166 3.8717 2.8555 6.3379 2.8555v-1.4023c0-0.20929 0.032702-0.41029 0.091797-0.59961-0.030681 3.65e-4 -0.061067 0.001953-0.091797 0.001953-1.9774 0-3.8625-0.75994-4.6445-1.9355-0.51305-0.91343-0.51305-2.0202 0-2.9336 0.78201-1.1756 2.6671-1.9355 4.6445-1.9355s3.8625 0.75994 4.6445 1.9355c0.25653 0.45671 0.38477 0.96176 0.38477 1.4668h0.9707c0.37598 0 0.72557 0.10419 1.0254 0.2832 0.054032-0.95668-0.16526-1.926-0.66016-2.7832l-0.013672-0.023438-0.013671-0.023438c-1.3188-2.0166-3.8717-2.8555-6.3379-2.8555z" color="#000000" fill="#fb4934" style="-inkscape-stroke:none"/>
    <path d="m6.2 7.2a2 1 0 1 0 3.6 0" stroke="#fb4934" stroke-linecap="round" stroke-width="1.75"/>
  </g>
</svg>
