<svg width="128" height="128" version="1.1" viewBox="0 0 128 128" xmlns="http://www.w3.org/2000/svg">
  <path d="m64 4c-18.43 5e-3 -34.03 13.88-38.56 32.93-12.4 3.008-21.43 14.08-21.44 27.07v4e-3c0 15.42 12.58 28 28 28h64c15.42 0 28-12.58 28-28v-4e-3c-0.015-13-9.055-24.08-21.47-27.07-4.527-19.03-20.11-32.9-38.53-32.92zm32 88c-6.58 0-12 5.42-12 12s5.42 12 12 12 12-5.42 12-12-5.42-12-12-12zm-64 0c-6.58 0-12 5.42-12 12s5.42 12 12 12 12-5.42 12-12-5.42-12-12-12zm32 8c-6.58 0-12 5.42-12 12s5.42 12 12 12 12-5.42 12-12-5.42-12-12-12z" fill="#928374"/>
  <path d="M64 8a36 40 0 0 0-35.311 32.256A24 24 0 0 0 8 64a24 24 0 0 0 24 24h64a24 24 0 0 0 24-24 24 24 0 0 0-20.715-23.746A36 40 0 0 0 64 8zM32 96a8 8 0 0 0-8 8 8 8 0 0 0 8 8 8 8 0 0 0 8-8 8 8 0 0 0-8-8zm64 0a8 8 0 0 0-8 8 8 8 0 0 0 8 8 8 8 0 0 0 8-8 8 8 0 0 0-8-8zm-32 8a8 8 0 0 0-8 8 8 8 0 0 0 8 8 8 8 0 0 0 8-8 8 8 0 0 0-8-8z" fill="#ebdbb2"/>
</svg>
