<svg width="128" height="128" version="1.1" viewBox="0 0 128 128" xmlns="http://www.w3.org/2000/svg">
  <path d="M20 68S8 68 8 56s16-12 16-12 0-32 28-32 28 24 28 24 10.08-16 24-8 4 24 4 24 12 0 12 8-8 8-8 8zm16 8a4 4 0 0 0 0 8h64a4 4 0 0 0 0-8zm-8 16a4 4 0 0 0 0 8h40a4 4 0 0 0 0-8zm56 0a4 4 0 0 0 0 8h20a4 4 0 0 0 0-8zm-40 16a4 4 0 0 0 0 8h40a4 4 0 0 0 0-8z" fill="none" stroke="#928374" stroke-width="8"/>
  <path d="M20 68S8 68 8 56s16-12 16-12 0-32 28-32 28 24 28 24 10.08-16 24-8 4 24 4 24 12 0 12 8-8 8-8 8zm16 8a4 4 0 0 0 0 8h64a4 4 0 0 0 0-8zm-8 16a4 4 0 0 0 0 8h40a4 4 0 0 0 0-8zm56 0a4 4 0 0 0 0 8h20a4 4 0 0 0 0-8zm-40 16a4 4 0 0 0 0 8h40a4 4 0 0 0 0-8z" fill="#ebdbb2"/>
</svg>
