<svg width="128" height="128" version="1.1" viewBox="0 0 128 128" xmlns="http://www.w3.org/2000/svg">
  <path d="m64 2a44 44 0 0 0-44 44 44 44 0 0 0 24 39.19v13.81a10.97 10.97 0 0 0 8 10.58v16.42h24v-16.42a10.97 10.97 0 0 0 8-10.58v-13.86a44 44 0 0 0 24-39.14 44 44 0 0 0-44-44zm0 20a24 24 0 0 1 24 24 24 24 0 0 1-24 24 24 24 0 0 1-24-24 24 24 0 0 1 24-24z" fill="#928374"/>
  <path d="M64 6a40 40 0 0 0-40 40 40 40 0 0 0 24 36.607V98a8 8 0 0 0 8 8h16a8 8 0 0 0 8-8V82.637A40 40 0 0 0 104 46 40 40 0 0 0 64 6zm0 12a28 28 0 0 1 28 28 28 28 0 0 1-28 28 28 28 0 0 1-28-28 28 28 0 0 1 28-28zm-8 96v8h16v-8z" fill="#ebdbb2"/>
</svg>
