<svg width="128" height="128" version="1.1" viewBox="0 0 128 128" xmlns="http://www.w3.org/2000/svg">
  <path d="m56 28a8 8 0 0 0 16 0v-16a8 8 0 0 0-16 0zm-23.11 16.2a8 8 0 0 0 11.31-11.31l-11.31-11.31a7.975 7.975 0 0 0-11.31 11.31zm50.91-11.31a8 8 0 0 0 11.31 11.31l11.31-11.31a8 8 0 0 0-11.31-11.31zm-19.8 7.113a24 24 0 0 0 0 48 24 24 0 0 0 0-48zm-52 16a8 8 0 0 0 0 16h16a8 8 0 0 0 0-16zm88 0a8 8 0 0 0 0 16h16a8 8 0 0 0 0-16zm-78.43 39.11a7.98 7.98 0 0 0 11.31 11.31l11.31-11.31a8 8 0 0 0-11.31-11.31zm73.54 11.31a8 8 0 0 0 11.31-11.31l-11.31-11.31a8 8 0 0 0-11.31 11.31zm-39.11 9.575a8 8 0 0 0 16 0v-16a8 8 0 0 0-16 0z" fill="#928374"/>
  <path d="M60 28a4 4 0 0 0 8 0V12a4 4 0 0 0-8 0zM35.714 41.373a4 4 0 0 0 5.658-5.658L30.058 24.403a4 4 0 0 0-5.656 5.656zm50.913-5.658a4 4 0 0 0 5.658 5.658l11.313-11.314a4 4 0 0 0-5.657-5.656zM64 44a20 20 0 0 0 0 40 20 20 0 0 0 0-40zM12 60a4 4 0 0 0 0 8h16a4 4 0 0 0 0-8zm88 0a1 1 0 0 0 0 8h16a1 1 0 0 0 0-8zM24.402 97.94a4 4 0 0 0 5.656 5.656l11.314-11.313a4 4 0 0 0-5.658-5.656zm73.538 5.658a4 4 0 0 0 5.656-5.656L92.283 86.628a4 4 0 0 0-5.657 5.657zM60 116a4 4 0 0 0 8 0v-16a4 4 0 0 0-8 0z" fill="#ebdbb2"/>
</svg>
