<svg width="16" height="16" version="1.1" viewBox="0 0 16 16" xmlns="http://www.w3.org/2000/svg">
  <path d="m8 2a1 1 0 0 0-0.84961 0.48438l-6 10a1 1 0 0 0 0.84961 1.5156h9a3 3 0 0 1 0.76758-2 3 3 0 0 1-0.76758-2 3 3 0 0 1 1.0195-2.2461l-3.1621-5.2676a1 1 0 0 0-0.84961-0.48438l-0.0078125-0.0019531zm-1 3h2v5h-2v-5zm0 6h2v2h-2v-2z" fill="#fabd2f"/>
  <path d="m14 0a2 2 0 0 0 0 4 2 2 0 0 0 0-4zm1.447 4.621a3 3 0 0 1-2.892 0 2 2 0 1 0 2.892 0zm0 4a3 3 0 0 1-2.892 0 2 2 0 1 0 2.892 0zm0 4a3 3 0 0 1-2.892 0 2 2 0 1 0 2.892 0z" fill="#f95252"/>
</svg>
