<svg width="16" height="16" fill="none" version="1.1" viewBox="0 0 16 16" xmlns="http://www.w3.org/2000/svg">
  <path d="m11.65 1.002a1.044 1.044 0 0 0-0.8652 0.584 3.056 3.056 0 0 0-4.137 1.545l-1.758 3.674s-0.8784 1.838-1.697 1.324a1.13 1.13 0 0 0-0.9766 2.037l0.03516 0.01562 10.37-8.645a1.044 1.044 0 0 0-0.9746-0.5352zm2.436 1.002a1 1 0 0 0-0.7305 0.2285l-12 10a1 1 0 0 0-0.127 1.408 1 1 0 0 0 1.408 0.127l12-10a1 1 0 0 0 0.127-1.408 1 1 0 0 0-0.6777-0.3555zm0.3105 3.268-8.174 6.812 5.182 2.48a1.13 1.13 0 0 0 0.9746-2.037c-0.9187-0.44-0.03906-2.277-0.03906-2.277l1.76-3.676a3.056 3.056 0 0 0 0.2969-1.303zm-7.436 7.723a1.377 1.377 0 1 0 2.482 1.188l-2.482-1.188z" fill="#ebdbb2" stroke-width="1.019"/>
</svg>
