<svg height="16" viewBox="0 0 16 16" width="16" xmlns="http://www.w3.org/2000/svg"><linearGradient x2="0" y2="16" gradientUnits="userSpaceOnUse" id="a"><stop offset=".1875" stop-color="#fb4934"/><stop stop-color="#fabd2f"/><stop offset=".3125" stop-color="#fabd2f"/><stop stop-color="#b8bb26"/><stop offset=".4375" stop-color="#b8bb26"/><stop stop-color="#8ec07c"/><stop offset=".5625" stop-color="#8ec07c"/><stop stop-color="#83a598"/><stop offset=".6875" stop-color="#83a598"/><stop stop-color="#8f3f71"/><stop offset=".8125" stop-color="#8f3f71"/><stop stop-color="#fb4934"/></linearGradient><path d="M1 2q7 4 14 0v12q-7-4-14 0zm2 7a1 1 0 0 0 0 2h1a1 1 0 0 0 0-2zm8 0a1 1 0 0 0 1-1h1a1 1 0 0 0 0-2h-2a1 1 0 0 0-1 1H9a1 1 0 0 0 0 2z" fill="url(#a)"/></svg>
