<svg height="16" viewBox="0 0 16 16" width="16" xmlns="http://www.w3.org/2000/svg"><linearGradient x2="0" y2="16" gradientUnits="userSpaceOnUse" id="a"><stop offset=".1875" stop-color="#fb4934"/><stop stop-color="#fabd2f"/><stop offset=".3125" stop-color="#fabd2f"/><stop stop-color="#b8bb26"/><stop offset=".4375" stop-color="#b8bb26"/><stop stop-color="#8ec07c"/><stop offset=".5625" stop-color="#8ec07c"/><stop stop-color="#83a598"/><stop offset=".6875" stop-color="#83a598"/><stop stop-color="#8f3f71"/><stop offset=".8125" stop-color="#8f3f71"/><stop stop-color="#fb4934"/></linearGradient><path d="M12 11a3 3 0 0 0 .414-5.969 4.5 5 0 0 0-8.824 0 3 3 0 0 0 .414 5.967zm-8 1a1 1 0 0 0 0 2 1 1 0 0 0 0-2zm8 0a1 1 0 0 0 0 2 1 1 0 0 0 0-2zm-4 1a1 1 0 0 0 0 2 1 1 0 0 0 0-2z" fill="url(#a)"/></svg>
