<svg width="16" height="16" version="1.1" viewBox="0 0 16 16" xmlns="http://www.w3.org/2000/svg">
  <path d="m8 2c-3.304 0-6 2.696-6 6 0 3.304 2.696 6 6 6 3.304 0 6-2.696 6-6 0-3.304-2.696-6-6-6zm0 1.715c1.188 0 2.259 0.4749 3.033 1.248h-6.066c0.7741-0.7731 1.846-1.248 3.033-1.248zm-3.037 1.252v6.066c-0.7731-0.7741-1.248-1.846-1.248-3.033 0-1.188 0.4749-2.259 1.248-3.033zm6.074 0c0.7731 0.7741 1.248 1.846 1.248 3.033 0 1.188-0.4749 2.259-1.248 3.033v-6.066zm-6.07 6.07h6.066c-0.7741 0.7731-1.846 1.248-3.033 1.248-1.188 0-2.259-0.4749-3.033-1.248z" fill="#d5c4a1"/>
</svg>
