<svg width="16" height="16" version="1.1" viewBox="0 0 16 16" xmlns="http://www.w3.org/2000/svg">
  <linearGradient id="a" x1="8" x2="8" y1="3" y2="10" gradientUnits="userSpaceOnUse">
    <stop stop-color="#458588" offset="0"/>
    <stop stop-color="#83a598" offset="1"/>
  </linearGradient>
  <path d="M8 3a7 7 0 0 0-7 7 7 7 0 0 0 .686 3h12.63A7 7 0 0 0 15 10a7 7 0 0 0-7-7z" fill="url(#a)"/>
  <path d="M10 7a1 1 0 0 0-1 1H8a1 1 0 0 0 0 2h2a1 1 0 0 0 1-1h1a1 1 0 0 0 0-2zm-7 3a1 1 0 0 0 0 2h1a1 1 0 0 0 0-2z" fill="#ebdbb2"/>
</svg>
