<svg width="16" height="16" version="1.1" viewBox="0 0 16 16" xmlns="http://www.w3.org/2000/svg">
  <path d="M0 11h16v5H0z" fill="#458588"/>
  <path d="m8 1a0.75 0.75 0 0 0-0.1855 0.07617 0.7501 0.7501 0 0 0-0.1582 0.06445 0.75 0.75 0 0 0-0.1875 0.07812l-2 2a0.75 0.75 0 0 0 0 1.062 0.75 0.75 0 0 0 1.062 0l0.7188-0.7188v6.438h-6.25a1 1 0 0 0-1 1 1 1 0 0 0 1 1h14a1 1 0 0 0 1-1 1 1 0 0 0-1-1h-6.25v-6.438l0.7188 0.7188a0.75 0.75 0 0 0 1.062 0 0.75 0.75 0 0 0 0-1.062l-2-2a0.75 0.75 0 0 0-0.5312-0.2188z" color="#000000" fill="#83a598" style="-inkscape-stroke:none"/>
</svg>
